# xmcd
#
# Track frame offsets:
# 182
# 18267
# 36185
# 55572
# 77940
#
# Disc length: 1338 seconds
#
# Revision: 2
# Processed by: cddbd v1.4PL0 Copyright (c) Steve Scherf et al.
# Submitted via: Axialis_AX_CDPlayer 2.6
#
DISCID=31053805
DTITLE=Jeremy Jordan - My love is good enough
DYEAR=1900
DGENRE=
TTITLE0=my love is good enough (indasoul radio mix)
TTITLE1=my love is good enough (street radio mix)
TTITLE2=my love is good enough (jamie's house edit)
TTITLE3=my love is good enough (album version)
TTITLE4=my love is good enough (indasoul extended instrumental)
EXTD=Entered By Slice!! In Detroit
EXTT0=
EXTT1=
EXTT2=
EXTT3=
EXTT4=
PLAYORDER=
